<svg viewBox="0 0 24 24" width="32" height="32" xmlns="http://www.w3.org/2000/svg">
    <path d="M6 8c0-2.21 1.79-4 4-4s4 1.79 4 4c0 2.21-1.79 4-4 4s-4-1.79-4-4z" fill="none" stroke="#2563eb" stroke-width="2"/>
    <path d="M14 16c0-2.21-1.79-4-4-4s-4 1.79-4 4c0 2.21 1.79 4 4 4s4-1.79 4-4z" fill="none" stroke="#2563eb" stroke-width="2"/>
    <path d="M10 8c0-1.1.9-2 2-2s2 .9 2 2c0 1.1-.9 2-2 2s-2-.9-2-2z" fill="#2563eb"/>
    <path d="M10 16c0-1.1-.9-2-2-2s-2 .9-2 2c0 1.1.9 2 2 2s2-.9 2-2z" fill="#2563eb"/>
</svg>

